Coordinates
version=1
nRows=16
nColumns=63
inDegrees=yes

Units are S.I. units (second, meters, Newtons, ...)
If the header above contains a line with 'inDegrees', this indicates whether rotational values are in degrees (yes) or radians (no).

endheader
time	pelvis_tilt	pelvis_list	pelvis_rotation	pelvis_tx	pelvis_ty	pelvis_tz	hip_flexion_r	hip_adduction_r	hip_rotation_r	knee_angle_r	knee_angle_r_beta	ankle_angle_r	subtalar_angle_r	mtp_angle_r	hip_flexion_l	hip_adduction_l	hip_rotation_l	knee_angle_l	knee_angle_l_beta	ankle_angle_l	subtalar_angle_l	mtp_angle_l	L5_S1_Flex_Ext	L5_S1_Lat_Bending	L5_S1_axial_rotation	L4_L5_Flex_Ext	L4_L5_Lat_Bending	L4_L5_axial_rotation	L3_L4_Flex_Ext	L3_L4_Lat_Bending	L3_L4_axial_rotation	L2_L3_Flex_Ext	L2_L3_Lat_Bending	L2_L3_axial_rotation	L1_L2_Flex_Ext	L1_L2_Lat_Bending	L1_L2_axial_rotation	L1_T12_Flex_Ext	L1_T12_Lat_Bending	L1_T12_axial_rotation	Abs_r3	Abs_r2	Abs_r1	Abs_t1	Abs_t2	neck_flexion	neck_bending	neck_rotation	arm_flex_r	arm_add_r	arm_rot_r	elbow_flex_r	pro_sup_r	wrist_flex_r	wrist_dev_r	arm_flex_l	arm_add_l	arm_rot_l	elbow_flex_l	pro_sup_l	wrist_flex_l	wrist_dev_l
2.830508	-1.092705	-2.373635	111.968238	0.239740	0.464343	0.903397	-2.160486	-1.825856	-10.764962	4.915786	0.085797	29.202035	-3.967760	0.000000	0.583311	2.939865	23.794687	1.510807	0.026369	26.972920	-4.368535	0.000000	0.225159	0.827665	0.609802	0.418142	1.100795	0.647914	0.369913	2.012385	0.647914	0.257334	2.012385	0.533576	0.209082	1.687775	0.495464	0.128656	1.282054	0.457351	1.608286	9.362716	3.391533	0.000000	0.000000	1.283499	-14.596863	44.704790	190.227540	-103.532420	85.652082	127.680565	83.907963	69.491001	-18.823654	-28.479899	-65.318807	-150.811004	117.005746	32.653849	48.175260	24.348147
2.847458	-0.768540	-2.637773	111.858134	0.240743	0.464012	0.902809	-1.625034	-1.609283	-11.060553	5.092855	0.088887	29.468916	-3.486899	0.000000	0.988878	2.670206	23.084392	1.583961	0.027645	26.991633	-4.002392	0.000000	0.234494	0.852594	0.543524	0.435478	1.133949	0.577495	0.385250	2.072996	0.577495	0.268003	2.072996	0.475584	0.217751	1.738609	0.441613	0.133990	1.320667	0.407643	1.674965	9.644708	3.022919	0.000000	0.000000	3.170596	-15.460776	44.873720	194.155211	-103.291121	89.040312	127.121750	84.059035	69.053629	-17.906675	-28.973996	-65.073358	-149.637517	116.220429	37.374913	48.940202	22.714713
2.864407	-0.422152	-2.864022	111.757097	0.241727	0.463824	0.902202	-1.123601	-1.349696	-11.378035	5.252286	0.091670	29.700584	-2.998659	0.000000	1.371751	2.365768	22.295600	1.672676	0.029194	27.021467	-3.554501	0.000000	0.240426	0.885840	0.473184	0.446495	1.178167	0.502758	0.394996	2.153831	0.502758	0.274783	2.153831	0.414036	0.223260	1.806404	0.384462	0.137379	1.372166	0.354888	1.717339	10.020797	2.631708	0.000000	0.000000	5.233594	-16.243732	45.286190	199.390837	-103.121947	93.564218	126.507198	84.299397	68.156143	-17.036890	-29.558402	-64.682781	-148.409378	115.592943	42.747125	49.244316	20.931331
2.881356	-0.059552	-3.041291	111.664946	0.242680	0.463776	0.901592	-0.677503	-1.046678	-11.697919	5.382242	0.093938	29.892399	-2.507515	0.000000	1.719209	2.029283	21.456892	1.778597	0.031042	27.075777	-3.037540	0.000000	0.242251	0.926290	0.397392	0.449884	1.231966	0.422229	0.397994	2.252182	0.422229	0.276869	2.252182	0.347718	0.224954	1.888891	0.322881	0.138422	1.434823	0.298044	1.730374	10.478380	2.210174	0.000000	0.000000	7.339658	-16.846623	45.888050	206.073605	-103.031833	99.385095	125.827604	84.731138	67.047079	-16.170012	-30.343091	-64.138168	-147.203269	115.043118	48.335936	48.998454	18.910750
2.898305	0.292844	-3.168733	111.569982	0.243641	0.463856	0.900900	-0.328114	-0.717060	-11.922182	5.436120	0.094878	30.005731	-2.114116	0.000000	2.011899	1.683623	20.612358	1.896231	0.033095	27.148725	-2.503044	0.000000	0.242499	0.967243	0.317014	0.450345	1.286433	0.336827	0.398402	2.351754	0.336827	0.277152	2.351754	0.277387	0.225185	1.972402	0.257574	0.138564	1.498259	0.237760	1.732148	10.941645	1.763137	0.000000	0.000000	9.310406	-17.123663	46.487760	214.048634	-102.975389	106.488052	125.059763	85.262965	65.910437	-15.332080	-31.533184	-63.538123	-146.277309	114.514788	53.786485	48.243650	16.786091
2.915254	0.607896	-3.236417	111.455641	0.244666	0.464056	0.900074	-0.108618	-0.378717	-11.986167	5.397438	0.094203	30.013043	-1.884088	0.000000	2.221706	1.348821	19.798891	2.019941	0.035255	27.223534	-2.007264	0.000000	0.241380	1.001911	0.232146	0.448267	1.332541	0.246655	0.396564	2.436046	0.246655	0.275874	2.436046	0.203128	0.224146	2.043096	0.188619	0.137925	1.551960	0.174110	1.724156	11.333815	1.291128	0.000000	0.000000	11.013623	-16.952488	46.843471	223.100648	-102.860654	114.750467	124.223417	85.856366	64.861489	-14.508710	-33.735904	-63.020780	-146.415874	114.074218	59.099897	46.784342	14.728284
2.932203	0.857091	-3.232212	111.323612	0.245797	0.464385	0.899121	-0.047050	-0.053807	-11.871012	5.268815	0.091958	29.904604	-1.836202	0.000000	2.321024	1.043098	19.034209	2.140516	0.037359	27.296684	-1.553227	0.000000	0.236974	1.023961	0.148712	0.440085	1.361869	0.158007	0.389325	2.489660	0.158007	0.270838	2.489660	0.130123	0.220054	2.088062	0.120829	0.135407	1.586116	0.111534	1.692684	11.583256	0.827093	0.000000	0.000000	12.320366	-16.248787	46.684737	231.967084	-102.574757	122.995607	123.334448	86.347264	63.956946	-13.777402	-38.132577	-62.876731	-148.960507	113.786027	64.110742	44.738536	12.887142
2.949153	1.014904	-3.172547	111.185070	0.247121	0.464779	0.898015	-0.142377	0.234099	-11.548109	5.047226	0.088091	29.681829	-2.037970	0.000000	2.318578	0.793054	18.359823	2.262143	0.039482	27.363749	-1.179340	0.000000	0.230466	1.024581	0.093445	0.427999	1.362693	0.099285	0.378633	2.491167	0.099285	0.263400	2.491167	0.081764	0.214011	2.089327	0.075924	0.131688	1.587077	0.070083	1.646198	11.590271	0.519710	0.000000	0.000000	13.284877	-15.046569	45.588963	238.131209	-102.270382	128.739956	122.440375	86.539908	63.234333	-13.189289	-40.315234	-63.187149	-149.761210	113.680497	68.738856	42.554613	11.682616
2.966102	1.082600	-3.063027	111.027117	0.248626	0.465220	0.896775	-0.390035	0.482447	-10.957665	4.728729	0.082532	29.331709	-2.558354	0.000000	2.213390	0.599232	17.798100	2.367477	0.041320	27.415421	-0.913635	0.000000	0.221472	1.004733	0.057289	0.411295	1.336295	0.060870	0.363856	2.442908	0.060870	0.253120	2.442908	0.050128	0.205659	2.048852	0.046548	0.126549	1.556331	0.042967	1.581951	11.365741	0.318626	0.000000	0.000000	13.838331	-13.453526	43.518992	241.800118	-101.981452	132.173574	121.610913	86.429301	62.706240	-12.826276	-40.425674	-63.964684	-149.027277	113.817170	72.929664	40.400783	11.011147
2.983051	1.095064	-2.894650	110.845528	0.250186	0.465739	0.895459	-0.779954	0.714175	-10.170514	4.327141	0.075523	28.872655	-3.298518	0.000000	2.003504	0.430742	17.306442	2.443963	0.042655	27.470208	-0.685386	0.000000	0.207601	0.974011	-0.017940	0.385535	1.295435	-0.019061	0.341067	2.368211	-0.019061	0.237267	2.368211	-0.015697	0.192778	1.986204	-0.014576	0.118623	1.508744	-0.013455	1.482870	11.018212	-0.099775	0.000000	0.000000	13.966613	-11.631111	40.857659	244.728957	-101.372908	135.024905	120.958968	86.124785	62.351428	-12.633561	-41.870842	-65.787463	-150.135466	114.272789	76.293413	38.224402	10.843031
3.000000	1.018281	-2.682352	110.631050	0.251929	0.466274	0.894046	-1.293749	0.891364	-9.199935	3.858810	0.067349	28.362578	-4.226702	0.000000	1.689841	0.320274	16.983337	2.475712	0.043209	27.486187	-0.642820	0.000000	0.188427	0.924084	-0.054240	0.349927	1.229031	-0.057631	0.309566	2.246817	-0.057631	0.215353	2.246817	-0.047460	0.174973	1.884391	-0.044070	0.107667	1.431406	-0.040680	1.345913	10.453419	-0.301669	0.000000	0.000000	13.745010	-9.629753	37.117606	244.431165	-101.000239	134.675953	120.503828	85.566536	62.234117	-12.695987	-39.616006	-67.819514	-147.992066	115.018708	78.976591	36.423026	11.169935
3.016949	0.892890	-2.413070	110.384950	0.253744	0.466882	0.892582	-1.917812	1.044658	-8.142770	3.343472	0.058355	27.816732	-5.225440	0.000000	1.272563	0.230766	16.786561	2.462022	0.042970	27.464582	-0.743406	0.000000	0.164202	0.864433	-0.059860	0.304939	1.149696	-0.063601	0.269767	2.101783	-0.063601	0.187666	2.101783	-0.052377	0.152478	1.762752	-0.048636	0.093825	1.339007	-0.044895	1.172877	9.778642	-0.332921	0.000000	0.000000	13.150729	-7.588877	32.556667	241.038247	-100.754605	131.250657	120.269447	84.745842	62.320174	-12.965181	-34.171399	-69.943265	-143.028385	116.043237	80.843381	35.335397	12.112561
3.033898	0.719626	-2.109356	110.095472	0.255659	0.467504	0.890972	-2.623513	1.164300	-6.960563	2.793717	0.048760	27.264664	-6.324856	0.000000	0.763957	0.169925	16.741502	2.394822	0.041798	27.396236	-1.040407	0.000000	0.137340	0.793460	-0.035642	0.255055	1.055302	-0.037870	0.225637	1.929218	-0.037870	0.156966	1.929218	-0.031187	0.127534	1.618023	-0.028959	0.078476	1.229069	-0.026732	0.981009	8.975777	-0.198233	0.000000	0.000000	12.299415	-5.523390	27.328363	234.613090	-100.754676	124.839680	120.240862	83.739737	62.577386	-13.447956	-26.000454	-72.147330	-135.366322	117.230599	81.718885	34.432169	13.417151
3.050847	0.518886	-1.786531	109.789009	0.257546	0.468128	0.889297	-3.362658	1.253766	-5.888497	2.254500	0.039348	26.772968	-7.259680	0.000000	0.197633	0.126843	16.793501	2.282899	0.039844	27.273111	-1.467502	0.000000	0.109875	0.716237	0.016098	0.204049	0.952595	0.017104	0.180514	1.741458	0.017104	0.125576	1.741458	0.014086	0.102030	1.460550	0.013080	0.062783	1.109451	0.012073	0.784828	8.102215	0.089532	0.000000	0.000000	11.266407	-3.563763	21.531106	225.201105	-100.950544	115.466803	120.323797	82.613544	63.133633	-14.174860	-15.476673	-74.199061	-125.434370	118.485432	82.500140	34.306204	14.707786
3.067797	0.310524	-1.436401	109.410976	0.259504	0.468755	0.887502	-4.126614	1.328224	-4.764644	1.739917	0.030367	26.316841	-8.176409	0.000000	-0.428262	0.087938	16.894738	2.145105	0.037439	27.116512	-2.040618	0.000000	0.081439	0.635783	0.090194	0.151240	0.845591	0.095831	0.133796	1.545843	0.095831	0.093076	1.545843	0.078920	0.075624	1.296489	0.073282	0.046534	0.984828	0.067645	0.581709	7.192105	0.501631	0.000000	0.000000	10.104025	-1.697010	15.544790	213.335902	-101.211213	103.693791	120.485335	81.419100	63.764055	-15.053982	-3.269093	-76.251889	-113.600697	119.670437	82.529536	34.174636	16.018584
3.084746	0.083110	-1.074384	109.016471	0.261431	0.469376	0.885585	-4.901195	1.374413	-3.739981	1.256904	0.021937	25.910760	-8.965613	0.000000	-1.102634	0.062146	16.997221	1.967651	0.034342	26.916079	-2.630739	0.000000	0.054908	0.551742	0.161964	0.101969	0.733817	0.172087	0.090208	1.341507	0.172087	0.062754	1.341507	0.141719	0.050987	1.125113	0.131596	0.031374	0.854649	0.121473	0.392201	6.241421	0.900797	0.000000	0.000000	8.838078	0.005236	9.511965	200.106479	-101.478622	90.588903	120.614785	80.323624	64.604173	-16.017477	10.131423	-78.131201	-100.464924	120.697443	83.343419	33.998868	16.411001
